<?xml version="1.0" encoding="UTF-8"?>
<svg id="Layer_2" data-name="Layer 2" xmlns="http://www.w3.org/2000/svg" viewBox="0 0 305.02 179.46">
  <defs>
    <style>
      .cls-1 {
        fill: #fff;
      }
    </style>
  </defs>
  <g id="Layer_2-2" data-name="Layer 2">
    <g id="Layer_1-2" data-name="Layer 1-2">
      <g>
        <path class="cls-1" d="M60.61,175.09l-.28.11c-2.79.93-3.77,1.2-7.67,1.21h-.41l-1.04-.09-.41-.04-1.16-.15c.17-.3.21-.49.16-.77h-.06l.05-.05h0s0,.03,0,.05c.81.12,1.89.31,2.71.39l.42.03,1.03.06h.41c3.69-.1,4.68-.22,7.74-1.38l-1.5.65v-.02ZM47.03,177.77h0l-.1.04.03-.02.08-.02c.6-.22,1.1-.45,1.48-.67.03,0,.05-.04.08-.05.55-.2,1.34-.37,1.92-.52l1.04.08c-1.35.36-3.14.85-4.52,1.16M43.88,178.5l-.15.03c-1.08.22-3.37.6-6.61.63h-.68c-.92,0-3.71-.04-6.86-.63h-.05c-1-.2-1.58-.35-2.04-.48l-.17-.05c-.09-.03-.21-.06-.3-.09-.67-.21-.95-.31-1.62-.59-.72-.34-1.31-.65-1.77-1.23-.96-1.48,1.22-2.42,3.23-2.94.62-.17,1.37-.33,2.23-.48l.14-.02s2.34-.42,5.81-.44h.59c2.29.03,4.38.17,6.21.43h.05c1.05.16,1.6.27,2,.35l.18.03c.09.02.21.04.3.06.83.19,1.05.24,1.75.45,1.07.34,1.67.61,2.27,1.03.22.17.46.37.62.72.44,1.16-1.26,2.03-2.77,2.55-1,.35-2.04.57-2.38.64M41.89,179.23h0c-1.29,0-3.01.04-4.3,0,1.03-.02,1.88-.07,2.86-.15l1.88-.03-.43.19h-.01ZM27.32,178.14c.74.19,1.49.36,2.24.49.26.05.57.2.81.3l-1.55-.09c-.46-.21-1.08-.46-1.51-.7M31.85,179.23h0l-.62-.03-.61-.04-.95-.07-.61-.05c-1.34-.18-3.14-.42-4.47-.66l-.23-.05-2.75-.62c3.97.85,4.21.9,6.83,1.16l.61.05,1.55.1.63.03,1.74.03c1.06.09,1.79.13,2.89.15-1.21,0-2.82.05-4.02,0M26.2,172.96s-.08.02-.11.03c-.71.2-1.19.39-1.41.48-.03,0-.06.03-.09.04-.53.05-1.24-.12-1.77-.17l-.69-.72c1.22.11,2.85.27,4.07.34l.1-.03-.03.03h-.07,0ZM22.77,174.99l.04.04h-.05s0-.02.01-.04c-.57-.5-1.36-1.15-1.9-1.68l-.27-.27-.66-.73-.26-.3c-1.65-2.24-4.43-5.99-4.19-12.24,2.69,3.49,5.54,6.67,13.2,10.14l-.34.49-.14.21c-3.28-1.51-7.35-3.4-11.34-7.5.83,3.67,1.46,5.53,4.37,9.16l.26.29.68.72.29.28.81.75c-.29.26-.41.43-.5.71M22.23,176.36h0l-1.64-.5c.65-.13,1.52-.27,2.16-.44v-.05l.05.04h-.05c.04.29.16.51.41.78-.28.05-.64.19-.93.17M32.33,172.02s-.11,0-.15,0c-.5-.05-1.08-.36-1.55-.51l.45-.69c1.07.34,2.48.81,3.57,1.11h-.16c-1.03,0-1.85.07-2.16.09M28.93,170.54l.29-.43.19-.29c2.63-4.33,3.71-6.98,5.01-12.36v-.03l.04-.21v.02-.02s.07.21.07.21v.03c1.64,4.97,2.92,7.78,6.61,12.36l-.89.37-.38.15c-2.35-3.07-3.6-5.05-5.24-9.31-1.16,3.95-1.93,5.95-3.91,9.31l-.18.29-.46.69-.19.27-.52.73c-.85.12-1.36.21-2.12.38l-.02.03h-.09l.11-.03c.39-.49.92-1.13,1.29-1.62l.2-.27s.19-.27.19-.27ZM41.83,172.34s-.11,0-.15-.02c-.32-.12-.49-.51-.7-.72l1.32-.52c.51.48,1.17,1.14,1.71,1.61-.04,0-.1-.02-.14-.03-.95-.17-1.8-.29-2.04-.32M41.9,169.89c4.91-2.39,9.28-4.82,12.94-10.47.32,2.91.81,7.32-2.6,12.44l-1.7.28c2-3.13,2.85-4.86,3.24-9.33-2.06,2.12-4.89,5.02-11.22,7.78l-.52.22-1.31.52-.54.2-1.5.51c-.97-.06-1.56-.09-2.54-.1,1.03-.33,2.43-.74,3.44-1.11l.52-.2.5-.2.79-.33.5-.22h0ZM49.5,173.46l1.74-.26c-.49.52-1.11,1.23-1.63,1.73l.03.05h-.07l.04-.05c-.18-.26-.42-.46-.81-.71.21-.23.5-.53.71-.76M15.77,175.92l-1.7-.65c1.79.55,2.69.83,5.05.73l1.65.53c-2.03.02-3.25.03-4.99-.61M54.62,175.59l-1.04-.05c4.38-1.72,9.34-3.66,15.01-8.58-3.26,1.71-8.18,4.3-16.43,5.83l-.69.12-1.74.27-.69.09-1.92.2c-.66-.22-1.1-.34-1.89-.52,1.32-.11,3.09-.24,4.4-.41l.69-.09,1.71-.27.67-.13c7.78-1.72,13.02-3.5,20-8.44-.94-4.38-11.76-10.54-36.26-10.54S.11,159.13.11,164.23c4.85,3.32,9.35,6.01,19.22,7.97l.65.73c-3.66-.74-9.19-1.85-15.55-5.37,2.91,2.16,7.32,5.42,15.17,8.12l.65.22,1.64.51.67.19,1.87.49c.55.27.96.44,1.69.69-1.32-.32-3.09-.71-4.38-1.09l-.67-.2-1.64-.52-.65-.22c-7.56-2.89-12.53-5.47-18.69-11.54,0,6.55,13.13,13.63,30.34,15l-.53-.08,1.07.08.47.03.52.08c1.46.09,2.95.14,4.46.14,2.06,0,4.07-.09,6.04-.25l.08-.03.43-.18.17-.09.47-.28c.93-.17,1.49-.31,2.3-.53l.02-.02.09-.02-.12.03c-.32.21-.73.53-1.09.71l-.17.08-.17.07-.18.07c.24-.02.48-.05.72-.08l.16-.06.13-.06c2.13-.27,3.77-.47,5.45-.79.89-.18,1.75-.37,2.6-.58.22-.05.44-.11.66-.17l2.15-.63c-.78.24-1.49.45-2.15.63l-.32.09c11.34-2.84,19.03-8.17,19.03-13.18,0-.19-.03-.39-.07-.59-9.18,9.72-18.01,11.95-18.09,11.96"/>
        <path class="cls-1" d="M41.38,176.57h0c-.04.44-1.15,1.29-5.03,1.36h-.12c-4.6-.09-6.25-1.29-5.12-2.06.43-.29,1.6-.79,4.61-.83h.11c3.69.06,5.62.84,5.55,1.53M46.69,174.98h0c-.24-.17-.33-.24-.85-.48l-.09-.04c-.57-.23-.83-.34-1.92-.63-.19-.05-.37-.09-.56-.13h-.07l-.14-.05c-.21-.05-.43-.09-.65-.13-.29-.05-.58-.11-.88-.15-.26-.04-.97-.15-1.87-.24l-.17-.02c-.27-.03-.54-.04-.81-.07-.36-.03-.71-.05-1.07-.07-.9-.04-1.23-.05-2.1-.06h-.29c-.55,0-1.09.03-1.64.05h-.17c-.38.03-.77.05-1.15.09-.65.05-1.85.15-3.55.52-.35.08-.7.17-1.04.27l-.06.02c-.25.08-.5.16-.74.25-.18.07-.36.14-.53.23-.12.06-.24.12-.36.19-1.29.77-.99,1.42-.65,1.85.13.17.27.29.63.54l.07.05c.48.29.99.52,1.72.77.18.06.35.12.53.17l.07.02.14.04c.21.06.43.11.64.17.29.07.59.14.89.2.9.18,1.51.26,1.96.33l.18.02c.29.03.59.07.89.1.39.04.78.07,1.17.09.95.06,1.46.07,2.34.08h.32c.62,0,1.24-.03,1.85-.06h.19c.43-.04.86-.07,1.29-.12,1.99-.2,3.17-.51,3.88-.7.37-.1.72-.22,1.08-.35l.06-.02c.24-.1.48-.2.71-.31.17-.09.33-.18.49-.27.11-.07.21-.15.31-.23.19-.16.69-.57.55-1.13-.09-.37-.43-.63-.62-.78"/>
        <path class="cls-1" d="M9.84,23.41c.11-.03.23-.04.34-.04.49,0,.91.28,1.15.76.03.05.05.11.07.17v-12.01s-.06.14-.07.29v3.93l-1.47.37v-4.23c.03-.87.44-1.38.67-1.61.29-.28.66-.44,1.02-.44.61,0,1.29.48,1.34,1.54v11.61c.5-.11,1-.21,1.51-.31v-11.8c-.02-.51-.07-1.61-.92-2.43-.42-.41-.93-.63-1.47-.63-1.57,0-3.27,1.76-3.37,4.72v11.24c.37-.88,1.03-1.09,1.19-1.13"/>
        <path class="cls-1" d="M58.51,152.55c-6.54-1.37-14.31-2.09-22.45-2.09h-1.56l.52-.79c1.53-2.35,4.62-7.12,8.16-12.64l.16-.25.3.02c.95.05,1.89.12,2.81.19-2.39-6.22-3.12-8.07-5.95-15.08-.44-.04-.77-.15-1.05-.35-.67-.46-.99-1.31-.77-2.07.23-.79.95-1.29,1.92-1.33.86.02,1.69.65,1.94,1.41.1.31.22,1.05-.51,1.78,2.83,6.97,4.61,11.66,6.49,16.61l.29.77-.8-.03c-1.24-.12-2.5-.21-3.79-.3-2.87,4.5-3.17,4.97-6.71,10.45,7.22.07,14.15.72,20.12,1.88v-11.89c-2.01-8.02-2.39-9.48-4.37-16.93-.52-.07-1.04-.15-1.57-.21,2.29,8.2,3.09,11.22,4.62,17.06l.02,10.1-.6-.1c-3.6-.62-7.51-1.06-11.62-1.32-.3.62-.94,1-1.69,1s-1.45-.39-1.82-1.02c-.33-.56-.33-1.25,0-1.82.33-.58.94-.92,1.66-.92h.16l2.9-4.59.31.02c1.95.14,3.86.33,5.71.56-2.15-5.99-4.11-11.08-5.71-15.23-.46-.05-.81-.2-1.11-.45-.65-.54-.89-1.37-.62-2.12.26-.72.93-1.17,1.73-1.17.85.01,1.68.64,1.94,1.45.21.63.05,1.26-.43,1.76,2.74,7.1,4.36,11.63,6.23,16.87l.29.8-.83-.09c-2.12-.3-4.35-.53-6.61-.71l-2.33,3.66c.12.14.2.28.26.41,3.74.23,7.33.61,10.67,1.15v-8.14c-1.91-7.22-3.5-12.83-5.04-18.27l-.21-.74.76.09c1.32.15,2.6.32,3.85.51l.33.05.14.53c2.29,8.68,2.8,10.78,4.51,17.76v13.88l-.6-.13h-.05ZM28.93,134.86l.16,7.48.15,8.29-.49.03c-8.09.45-15.57,1.66-21.07,3.42l-.93.3.28-.93c1.57-5.2,1.96-6.37,3.95-12.26-.05-.06-.11-.13-.16-.2-.38-.61-.37-1.43.03-2.15.35-.64.92-1.02,1.51-1.02.16,0,.31.03.47.08.6.21,1,.98.94,1.83-.06.86-.56,1.51-1.35,1.78-1.46,4.17-1.75,5.07-3.48,10.55,5.15-1.47,11.56-2.47,18.64-2.93l-.26-14.47c2.72-8.59,4.15-12.81,6.45-19.61-.49-.48-.68-1.17-.5-1.8.23-.79.97-1.32,1.93-1.4h0c.7,0,1.33.3,1.7.79.41.54.48,1.26.18,1.87-.31.64-.96,1.03-1.75,1.07-2.9,8.48-4.37,13.02-6.4,19.27M6.2,63.46l.21-.9c1.63-6.9,2.02-8.35,3.85-15.29l.08-.29.29-.07c1.05-.26,2.15-.51,3.3-.74l.85-.17-.26.83c-1.13,3.57-1.18,3.72-3.1,10.24.41-.1,1.88-.42,1.88-.42v51.08c.14.06.27.13.37.23.53.48.67,1.31.36,2.12-.31.81-.97,1.33-1.68,1.33-.61,0-1.15-.46-1.36-1.14-.2-.66-.08-1.59.81-2.31v-49.35c-.56.13-1.11.27-1.65.41l-.87.23.24-.86c1-3.55,1.11-3.94,3.05-10.31-.37.09-.74.17-1.1.26-1.45,5.38-1.74,6.52-3.29,12.85.61-.18,1.23-.36,1.88-.53l.64-.17v55.22c.09.05.19.11.26.18.58.53.55,1.54.27,2.24-.3.77-.87,1.23-1.53,1.23-.11,0-.21-.01-.32-.04-.47-.11-.87-.61-1-1.27-.16-.81.16-1.62.85-2.19v-53.37c-.76.22-1.49.44-2.18.67l-.88.29h.03ZM7.22,13.4c.09-2.5,1.18-5.46,3.99-6.32.29-.07.55-.1.82-.1,1.84,0,3.76,1.41,3.9,4.55v13.24l-.42.08c-1.21.22-2.37.46-3.48.72l-.61.14c-.08.27-.21.53-.39.77-.34.45-.83.72-1.29.72-.2,0-.77-.06-1.1-.73-.26.07-1.42.44-1.42.44v-13.5h0ZM16.71,11.24c.15-3.2,2.08-5.47,5.03-5.97.19-.02.37-.03.54-.03,2.27,0,4.79,1.53,4.97,4.89v13.3s-1.44.1-1.91.14c-.4.95-1.24,1.17-1.51,1.22-.12.02-.24.03-.36.03-.66,0-1.26-.37-1.55-.96-.32-.63-.23-1.41.23-2.01.38-.51.98-.81,1.6-.81.68,0,1.24.35,1.54.93l.33-.03v-11.75c-.03-.51-.09-1.61-1.11-2.53-.62-.55-1.39-.84-2.22-.84-1.86,0-3.91,1.52-4.04,4.35v11.61c.6-.09,1.21-.18,1.83-.26v-11.77c.03-.57.23-1.03.59-1.39.36-.35.81-.54,1.29-.54.91,0,1.57.67,1.63,1.62v9.11l-1.59.17v-9.2c-.06-.03-.11-.04-.15-.04-.11,0-.17.09-.18.25v13.2l-.45.05c-1.35.16-2.65.35-3.91.55l-.59.09v-13.4.02ZM30.63,29.81l.53-.02v4.84l-.49.02c-7.24.29-13.99,1.17-19.52,2.53l-.28.07-.21-.2c-.95-.94-2.19-2.2-3.11-3.15l-.15-.15v-6.79l.89.93c1.4,1.47,1.59,1.65,4.13,4.13.47-.11.95-.21,1.43-.31l.61-.12v1.62l-.41.08c-.63.13-1.26.27-1.86.4l-.27.06-.2-.19c-.86-.84-1.93-1.9-2.89-2.86v2.27c.77.78,1.74,1.75,2.53,2.53,5.21-1.25,11.47-2.07,18.14-2.4v-1.64c-3.15.15-6.2.42-9.1.79-.38,1.01-1.23,1.27-1.41,1.31-.14.03-.29.05-.42.05-.59,0-1.12-.32-1.4-.86-.33-.63-.27-1.41.17-2.06.38-.55.97-.88,1.58-.88s1.11.31,1.4.84c3.27-.42,6.74-.7,10.3-.85M27.94,10.04c.17-3.16,2.43-5.33,5.76-5.54h0c2.33,0,5.71,1.42,5.92,5.33v36.52c3.4,3.24,4.12,3.98,7.35,7.33l.32.33-3.1,3.67-.39-.4c-3.74-3.77-6.17-5.95-9.25-8.72l-.17-.15-.03-.25v-21.09c-.38-.16-.82-.43-1.06-1-.23-.54-.17-1.13.16-1.63.38-.58,1.07-.94,1.78-.94.33,0,.64.07.93.22.7.34,1.14,1.08,1.09,1.81-.03.33-.2,1.09-1.24,1.55v20.63c3.83,3.46,4.81,4.4,8.05,7.59l1.05-1.24c-2.87-2.96-3.66-3.71-6.98-6.87l-.16-.15-.02-.24V9.85c-.03-.51-.09-1.64-1.22-2.65-.79-.72-1.84-1.12-2.95-1.12-1.94,0-4.09,1.24-4.23,3.96v11.66c.74-.03,1.48-.07,2.23-.09v-9.6c-.74-.31-.99-.89-1.07-1.15-.16-.54-.06-1.1.29-1.57.39-.52,1.05-.85,1.72-.85.31,0,.6.07.88.19.7.33,1.14,1.04,1.09,1.78-.02.34-.19,1.12-1.25,1.59v11.16h-.5c-1.53.05-3.03.11-4.5.19l-.54.03v-13.34h.04ZM33.85,69.68l-4.85-4.27c-1.47,5.89-1.56,6.26-3.69,15.02l-.02.1-.06.09c-2.19,2.99-2.32,3.18-5.54,7.91l-.93-.4c2.5-11.41,4.03-17.94,6.65-28.91-.66-.53-.89-1.24-.71-1.94.2-.78.89-1.36,1.79-1.49h.19c.48,0,.84.17,1.01.27.63.39.95,1.15.79,1.9-.15.72-.69,1.27-1.45,1.49-2.51,10.3-4.06,17.07-5.57,23.74.81-1.15,1.66-2.35,2.38-3.35,1.71-7.17,2.21-9.2,4.01-16.45l.2-.82.67.41,4.97,4.39,1.18-1.37c-1.41-1.24-6.02-5.31-6.02-5.31l1.17-1.14,7.13,6.31-3.29,3.83h-.01ZM11.38,43.84c5.21-1.25,11.46-2.07,18.14-2.4v-1.14c-.64-.25-.92-.71-1.04-.99-.23-.56-.16-1.17.18-1.69.39-.57,1.05-.93,1.75-.93.3,0,.59.07.86.19.7.32,1.13,1.05,1.07,1.8-.05.69-.49,1.25-1.18,1.56v2.71l-.49.02c-7.24.29-13.99,1.17-19.52,2.53l-.28.07-.21-.2c-.95-.94-2.19-2.2-3.11-3.15l-.15-.15v-6.79l.89.93c1.41,1.48,1.6,1.67,4.13,4.13,3.29-.73,6.95-1.3,10.88-1.7l.56-.06v1.6l-.46.05c-4.07.41-7.84,1.01-11.21,1.78l-.27.06-.2-.19c-.86-.84-1.93-1.89-2.89-2.85v2.25c.77.79,1.74,1.75,2.53,2.54M16.14,50.89l-.84.7v-5.7l.42-.08c2.11-.38,4.32-.69,6.57-.93l1.91-.2-1.55,1.12c-2.97,2.15-3.09,2.24-6.5,5.08M20.04,140.79v-42.22l1.58-.19v43.82l-.45.05c-2.33.28-4.57.63-6.66,1.04-.43,1.18-.94,2.58-1.41,3.88l-.24.66c3.42-.74,7.21-1.3,11.28-1.68l-.21-11.79.12-.36c3.85-12.63,7.34-23.01,9.48-29.34-.45-.39-.66-.82-.67-1.31s.17-.95.52-1.3c.4-.41.97-.64,1.57-.64.51,0,.99.17,1.37.5.56.48.78,1.3.53,2-.12.33-.52,1.07-1.7,1.21-.63,1.77-3.92,11.17-9.62,29.52l.15,6.6.12,6.38-.48.04c-5.12.43-9.78,1.15-13.86,2.13l-.91.22.31-.89c.7-2.02,1.67-4.67,2.41-6.73l.18-.49.28-.06c1.99-.41,4.12-.76,6.32-1.05M31.98,89.74c.29-.68.99-1.13,1.82-1.19h0c.83,0,1.57.44,1.9,1.1.27.55.23,1.19-.1,1.73-.36.57-1,.92-1.72.92-.16,0-.33-.02-.49-.05l-.73.87c1.13-.02,2.23-.03,3.29-.03,11.37,0,18.63,1.32,22.28,2.02l1.04-1.4c-7.36-1.6-13.72-1.98-19.13-2.21l-.49-.02v-1.59l.53.02c8.57.35,14.07,1.03,21.01,2.63l.75.17-.45.63c-.53.75-1.2,1.67-1.81,2.49l-.8,1.09-.48-.15c-7.31-1.42-14.13-2.06-22.06-2.06-1.99,0-3.99.04-6.04.1l-1.13.03,2.89-3.53c-.28-.51-.32-1.07-.09-1.57M42.47,79.18h.25c14.64.84,21.23,3.23,24.39,4.38l.58.21-.31.53c-.41.7-.95,1.57-1.43,2.35l-.69,1.12-.43-.14c-3.45-1.13-5.87-1.61-9.46-2.27l-.42-.08v-1.59l.6.1c3.39.57,6.43,1.28,9.07,2.12l.81-1.31c-8.35-2.85-17.57-3.49-22.23-3.79l-1.34,1.57c2.81.12,5.57.33,8.21.63.26-.5.7-.81,1.28-.87h.19c.73-.01,1.43.46,1.77,1.2.33.7.25,1.47-.2,2.01-.3.36-.77.57-1.27.57-.69,0-1.48-.41-1.83-1.31-3.36-.38-6.89-.62-10.52-.71l-1.09-.03,4.06-4.7h.01ZM50.99,69.08l.28.04c4.88.65,7.18,1.12,10.86,2.05.31-.66.86-.74,1.11-.74.13,0,.23.02.31.03.62.18,1.09.72,1.3,1.45.21.75.09,1.5-.32,1.95-.23.25-.53.38-.87.38-.59,0-1.31-.46-1.6-1.47-3.89-1.01-6.34-1.42-10.39-1.99l-1.23,1.49c11.52,1.38,16.54,3.58,19.08,4.81l.55-1.22c-.97-.57-2.13-1.11-3.45-1.62l-.33-.13v-1.67l.7.27c2.18.85,3.46,1.64,4.49,2.26l.37.23-.16.41c-.28.68-.65,1.53-.99,2.29l-.59,1.34-.59-.46c-5.98-2.99-12.85-4.23-21.3-5.15l-.95-.11,3.71-4.44h0ZM72.29,123.79c-2.99-2.92-10.39-5.33-20.33-6.64-.23.45-.62.74-1.17.86-.13.02-.24.03-.34.03-.76,0-1.48-.48-1.82-1.22-.32-.69-.23-1.45.22-1.98.31-.37.81-.58,1.33-.58.64,0,1.42.35,1.82,1.29,9.25,1.2,16.43,3.4,20.05,6.13v-1.33c-4.24-3.79-15.8-6.62-29.66-7.27-.33.63-.95.99-1.71.99-.55,0-1.1-.2-1.47-.53-.56-.53-.75-1.31-.49-2.01.27-.72.97-1.18,1.87-1.23.88.06,1.49.47,1.8,1.17,14.1.67,25.82,3.58,30.25,7.47v-48.66l-.35-.32c-3.4-3.12-8.92-4.7-16.17-6.1l-.82-.16,1.45-1.88c.55-.73,1.13-1.49,1.61-2.1l.2-.25.31.07c6.84,1.56,9.68,2.81,12.53,4.56l.24.15v1.76l-.78-.48c-3.39-2.09-6.74-3.15-11.67-4.31l-1.06,1.4c8.92,1.87,12.48,3.98,14.48,5.68v-8.77l-.37-.39c-1.5-1.6-4.48-3.05-9.38-4.57l-.65-.2,1.66-2.53c-.27-.74-.25-1.45.07-1.96.23-.36.6-.57,1.01-.57.1,0,.2,0,.3.04.91.37,1.28,1.36,1.27,2.2,0,.75-.31,1.32-.81,1.51-.12.05-.24.07-.37.07-.16,0-.31-.04-.44-.09-.09.15-.19.3-.28.44,2.08.69,5.75,2.03,7.98,4.07v-19.57l-.36-.36c-.92-.91-2.31-1.79-4.15-2.63-7.32,12.63-17.12,24.05-26.59,35.09-6.21,7.24-12.63,14.73-18.29,22.48.43.78.25,1.41.09,1.73-.39.78-1.28,1.19-1.92,1.19l-.27-.03c-.74-.17-1.23-.75-1.3-1.51-.09-.86.39-1.69,1.19-2.06.23-.09.51-.13.73-.14,5.36-7.04,11.3-13.9,17.04-20.53,10.25-11.84,20.86-24.09,28.49-37.76l.22-.4.42.18c2.02.84,3.58,1.77,4.7,2.77v-1.22l-.37-.38c-1.04-1.07-2.75-2.09-5.09-3.06-7.22,11.85-16.49,22.71-25.47,33.21-8.06,9.43-16.4,19.19-23.19,29.61v45.21l-.43.07c-.97.16-1.91.31-2.85.5l-.61.12v-1.66l2.35-.39v-44.27l.1-.14c6.85-10.45,15.16-20.18,23.2-29.58,9.24-10.81,18.8-21.99,26.07-34.21l.22-.37.4.15c2.48.95,4.36,2.02,5.66,3.17V10.86s0-.03-.03-.05v-.13c0-.16-.03-.29-.06-.45-.03-.18-.09-.37-.14-.55-.06-.16-.11-.32-.2-.47-.09-.16-.17-.31-.29-.47-.11-.16-.2-.29-.35-.45-.11-.13-.23-.29-.37-.42-.14-.16-.29-.29-.43-.42-.15-.13-.32-.29-.49-.42s-.34-.27-.54-.4c-.2-.13-.4-.26-.6-.39s-.43-.26-.66-.39c-.23-.13-.46-.26-.71-.39-.26-.13-.52-.26-.8-.39-.29-.13-.57-.26-.89-.39-.31-.13-.63-.26-.95-.39-.37-.13-.75-.29-1.12-.42s-.77-.26-1.2-.39c-.4-.13-.86-.26-1.29-.39-.43-.11-.83-.24-1.29-.34-.4-.1-.8-.21-1.2-.31-.37-.08-.71-.16-1.09-.24-.31-.08-.66-.16-1-.21-.26-.05-.51-.1-.77-.16-.29-.05-.55-.11-.83-.16-.23-.05-.49-.11-.72-.13-.2-.05-.4-.08-.6-.11-.23-.05-.43-.08-.63-.11s-.43-.08-.63-.1c-.2-.03-.4-.05-.6-.08-.17-.03-.37-.05-.55-.08-.2-.03-.4-.05-.57-.08-.2-.03-.37-.05-.57-.08s-.4-.05-.57-.08c-.26-.03-.49-.05-.71-.08-.23-.03-.49-.05-.72-.08s-.49-.05-.72-.08c-.37-.03-.71-.05-1.09-.11-.71-.05-1.46-.11-2.18-.16h-.09c-.46-.03-.92-.08-1.37-.08-.43-.03-.89-.05-1.35-.08-.23,0-.43-.03-.66-.03-.17,0-.37-.03-.57-.03s-.4,0-.6-.03h-.6c-.17,0-.37-.03-.57-.03h-1.49c-.17,0-.31-.03-.49-.03h-.52c-.14,0-.31,0-.49.03h-1.63c-.17,0-.34,0-.51.03h-.55c-.2,0-.4.03-.6.03-.23,0-.46,0-.69.03-.23,0-.46,0-.69.03-.23,0-.46.03-.69.03-.26,0-.49.03-.71.03-.32.03-.63.05-.95.08-.29,0-.6.03-.92.05-.29.03-.6.05-.92.08-.4.03-.77.05-1.15.08-.37.05-.77.08-1.15.13-.4.03-.8.08-1.2.13-.43.03-.86.08-1.26.13-.43.05-.86.13-1.29.19-.43.05-.86.13-1.29.18-.46.08-.89.16-1.32.21-.43.08-.86.16-1.29.23-.46.11-.91.19-1.35.26-.46.11-.89.21-1.32.29-.49.13-.95.24-1.41.34-.49.13-.97.26-1.43.39-.51.13-1,.29-1.49.45-.55.16-1.09.34-1.61.53-.66.24-1.32.5-1.92.76C2.35,6.46,0,8.57,0,10.86v151.47c0-2.29,2.35-4.39,6.39-6.15.6-.26,1.26-.53,1.92-.76.52-.18,1.06-.37,1.61-.53.49-.16.97-.31,1.49-.45.46-.13.95-.26,1.43-.39.46-.11.92-.21,1.41-.34.43-.08.86-.18,1.32-.29.43-.08.89-.16,1.35-.26l1.29-.24c.43-.08.86-.13,1.32-.21.43-.05.86-.13,1.29-.18.43-.05.86-.13,1.29-.18.4-.05.83-.11,1.26-.16.4-.03.8-.08,1.2-.13.37-.03.77-.05,1.15-.1.37-.03.75-.05,1.15-.08.31-.03.63-.05.92-.08.31-.03.63-.05.92-.08.31,0,.63-.03.95-.05.23,0,.46-.03.71-.03.23,0,.46-.03.69-.03.23-.03.46-.03.69-.03.23-.03.46-.03.69-.03.2,0,.4-.03.6-.03h.55c.17-.03.34-.03.51-.03h1.09c.17,0,.35-.03.52-.03h1.52c.17.03.34.03.49.03h1c.2,0,.4.03.57.03h.6c.2.03.4.03.6.03s.4.03.57.03c.23,0,.43,0,.66.03.46.03.92.03,1.35.05.46.03.92.05,1.37.11h.09c.72.05,1.46.11,2.18.16.37.05.72.08,1.09.11.23.03.49.05.72.08s.49.05.72.08.46.05.71.08c.17.03.37.05.57.08s.37.05.57.08c.17.03.37.05.57.08.17.03.37.05.55.08.2.03.4.05.6.08.2.03.43.08.63.11s.4.05.63.11c.2.03.4.05.6.1.23.03.49.08.72.13.29.03.54.08.83.13.26.05.51.11.77.19.35.05.69.13,1,.21.37.08.72.16,1.09.24.4.11.8.21,1.2.32.46.11.86.24,1.29.34.43.13.89.26,1.29.39.43.13.83.26,1.2.39.37.13.75.29,1.12.42.31.13.63.26.95.39.31.13.6.26.89.39s.54.26.8.39.49.26.71.39c.23.13.46.26.66.39.2.13.4.26.6.39s.37.26.54.39.34.26.49.42c.14.13.29.26.43.42.14.13.26.26.37.42.15.16.23.29.35.45.11.16.2.31.29.47.09.16.14.31.2.47.06.19.11.37.14.55.03.16.06.29.06.45v.13s.03.03.03.05v-38.19l-.36-.35h-.04Z"/>
        <path class="cls-1" d="M16.81,48.33c.55-.44,1.14-.91,1.72-1.36-.56.09-1.13.18-1.72.28v1.08Z"/>
        <polygon class="cls-1" points="84.89 132.3 84.89 129.31 103.12 129.31 103.12 132.3 95.7 132.3 95.7 159.83 92.31 159.83 92.31 132.3 84.89 132.3"/>
        <polygon class="cls-1" points="104.07 137.26 107.32 137.26 114.87 153.65 122.71 137.26 123.29 137.26 131.19 153.65 138.88 137.26 142.17 137.26 131.48 159.83 130.89 159.83 123.03 143.67 115.17 159.83 114.57 159.83 104.07 137.26"/>
        <path class="cls-1" d="M157.51,139.52c-2.63,0-4.89.89-6.78,2.68-1.89,1.78-2.84,3.94-2.84,6.47,0,1.63.43,3.15,1.29,4.57.86,1.41,2.03,2.5,3.49,3.27,1.47.77,3.08,1.15,4.83,1.15s3.36-.38,4.83-1.15c1.47-.77,2.63-1.86,3.49-3.27s1.29-2.93,1.29-4.57c0-2.53-.95-4.69-2.85-6.47-1.9-1.79-4.15-2.68-6.77-2.68M157.52,136.68c3.79,0,6.93,1.26,9.42,3.78,2.27,2.29,3.4,5.01,3.4,8.15s-1.2,5.91-3.59,8.27-5.47,3.54-9.23,3.54-6.86-1.18-9.26-3.54c-2.39-2.36-3.59-5.12-3.59-8.27s1.13-5.84,3.4-8.13c2.49-2.53,5.64-3.8,9.45-3.8"/>
        <polygon class="cls-1" points="176.17 128.54 179.34 128.54 179.34 146.37 190.74 137.26 195.39 137.26 181.87 148.03 196.19 159.83 191.73 159.83 179.34 149.67 179.34 159.83 176.17 159.83 176.17 128.54"/>
        <path class="cls-1" d="M220.15,146.26c-.42-1.55-1.04-2.79-1.84-3.71-.81-.93-1.88-1.67-3.21-2.24s-2.73-.85-4.19-.85c-2.41,0-4.49.71-6.22,2.14-1.27,1.04-2.23,2.59-2.88,4.67h18.34ZM220.15,152.34l2.67,1.29c-.87,1.58-1.88,2.85-3.03,3.82s-2.44,1.7-3.87,2.21c-1.43.5-3.05.75-4.87.75-4.01,0-7.15-1.21-9.42-3.62-2.26-2.41-3.39-5.14-3.39-8.18,0-2.87.96-5.42,2.87-7.66,2.43-2.85,5.68-4.27,9.75-4.27s7.54,1.46,10.05,4.38c1.78,2.06,2.69,4.63,2.71,7.72h-22.13c.06,2.62.97,4.77,2.74,6.45,1.76,1.68,3.95,2.51,6.54,2.51,1.25,0,2.47-.2,3.65-.6,1.19-.4,2.19-.93,3.03-1.59.83-.66,1.73-1.73,2.69-3.21"/>
        <polygon class="cls-1" points="226.89 137.26 230.24 137.26 238.69 154.64 246.9 137.26 250.27 137.26 235.59 168.09 232.25 168.09 236.99 158.12 226.89 137.26"/>
        <path class="cls-1" d="M266,139.52c-2.63,0-4.89.89-6.78,2.68-1.89,1.78-2.84,3.94-2.84,6.47,0,1.63.43,3.15,1.29,4.57.86,1.41,2.03,2.5,3.49,3.27,1.47.77,3.08,1.15,4.83,1.15s3.36-.38,4.83-1.15c1.47-.77,2.63-1.86,3.49-3.27s1.29-2.93,1.29-4.57c0-2.53-.95-4.69-2.85-6.47-1.9-1.79-4.15-2.68-6.77-2.68M266.01,136.68c3.79,0,6.93,1.26,9.42,3.78,2.27,2.29,3.4,5.01,3.4,8.15s-1.2,5.91-3.59,8.27c-2.39,2.36-5.47,3.54-9.23,3.54s-6.86-1.18-9.26-3.54c-2.39-2.36-3.59-5.12-3.59-8.27s1.13-5.84,3.4-8.13c2.49-2.53,5.64-3.8,9.45-3.8"/>
        <polygon class="cls-1" points="284.66 128.54 284.66 159.83 287.82 159.83 287.82 149.67 300.22 159.83 304.67 159.83 290.36 148.03 303.88 137.26 299.23 137.26 287.82 146.37 287.82 128.54 284.66 128.54"/>
        <path class="cls-1" d="M228.53,106.47h-3.49c-5.23-1.17-7.56-5.55-7.56-13.13s3.14-12.06,9.3-12.49c6.16.43,9.19,4.59,9.19,12.49s-2.33,11.95-7.44,13.13M228.53,77.98c-1.16-.11-2.33-.11-3.61,0-9.42,1.17-15.35,6.83-15.35,15.37,0,5.59,2.96,10.54,7.51,13.13h-7.36c-2.31-.15-5.41-.76-6.69-2.89-.11-.17-.23-.32-.33-.51-.13-.27-.26-.53-.36-.81-.06-.15-.12-.31-.17-.47-.71-1.94-.83-3.95-.83-5.57v-14.04c.07-2.22.59-3.67,3.47-3.67h1.05v-.84h-16.85v.84h1.05c2.89,0,3.41,1.45,3.48,3.67v14.04c0,1.62-.13,3.63-.84,5.57-.05.16-.11.32-.17.47-.11.27-.24.54-.36.81-.1.19-.22.34-.33.51-1.28,2.13-4.38,2.74-6.68,2.89h-13.5c-3.72,0-6.51-1.49-8.37-3.95-1.86-2.45-2.67-5.76-2.67-9.6,0-7.58,3.37-12.48,11.16-12.48,5.47,0,9.42,1.71,9.88,7.26h1.51c0-5.02,0-6.83-1.97-8.54-1.86-1.6-5.58-2.24-11.05-2.24s-10.24,1.81-13.38,4.7c-3.25,2.88-4.88,6.94-4.88,11.31s1.63,8.43,4.88,11.31c.9.85,1.92,1.59,3.04,2.24h-5.27v-.03h-9.9v-10.95c0-4.23-1.69-8.36-4.73-11.36-3.15-3-7.54-4.96-13.06-4.96h-27.81l7.43-6.82c3.6-3.21,7.43-4.55,11.82-1.24.11,0,.34.21.67.51l.68.62,1.01-.93c-2.14-2.48-5.06-5.69-8.56-5.69-2.36.11-5.4,1.86-8.89,4.86l-13.4,12.09h35.46c7.32,0,10.92,5.58,10.92,12.91v10.95h-43.16c-3.83-.04-6.54-1.29-6.98-5.04v-1.23h-1.13v1.34c0,3.19.11,4.43,1.13,5.56l.33.31c1.18,1.08,2.58,1.5,5.72,1.63v.02h93.83c1.2-.05,2.68-.18,4.06-.54,1.18-.39,2.36-.81,3.44-1.26,1.57-.81,2.9-1.87,4.02-3.12,1.12,1.25,2.46,2.31,4.02,3.12,1.08.45,2.27.88,3.45,1.26,1.37.36,2.86.49,4.05.54h18v-.02c.35-.07.86-.08,1.59-.08,2.91-.32,5.47-1.17,7.67-2.35,5-2.88,7.68-7.58,7.68-13.23,0-8.54-5.7-14.19-15.35-15.37"/>
        <path class="cls-1" d="M274.87,104.84v1.63h-10.9c-5.23-1.17-7.56-5.55-7.56-13.12s3.14-12.06,9.31-12.49c5.98.41,8.98,4.38,9.15,11.84v12.14ZM300.13,77.69h-12.33v.83h1.05c3.14,0,3.49,1.71,3.49,4.27v6.92h0v6.52c0,1.62-.13,3.63-.84,5.57-.05.16-.11.32-.17.47-.11.27-.24.54-.36.81-.1.19-.22.34-.33.51-1.28,2.13-4.39,2.74-6.69,2.88h-1.27l.12-13.82h-.06c-.31-8.14-5.91-13.53-15.29-14.67-1.16-.11-2.33-.11-3.61,0-9.42,1.17-15.35,6.83-15.35,15.37,0,5.65,3.03,10.67,7.68,13.23,2.21,1.17,4.77,2.03,7.68,2.35l2.88.11h8.18l.07.73v1.5c0,1.71-.12,3.84-.93,5.87-.78,2.05-2.13,3.99-4.4,5.56v1.31l1.14-.26c1.39-.43,2.67-.96,3.95-1.49,2.91-1.39,4.88-3.41,6.16-6.08.81-1.81,1.86-4.27,1.75-6.29v-.84h2.07c1.2-.05,2.68-.18,4.06-.54,1.18-.39,2.36-.81,3.44-1.27,2.67-1.39,4.77-3.41,6.05-6.08.93-1.81,1.86-4.27,1.86-6.29v-12.06c0-2.56.35-4.27,3.49-4.27h1.05v-.83h-4.55v-.02Z"/>
        <polygon class="cls-1" points="295.77 64.33 298.82 67.93 300.57 74.47 301.93 67.93 305.02 64.33 295.77 64.33"/>
        <polygon class="cls-1" points="291.33 74.47 292.68 67.94 295.77 64.34 286.52 64.34 289.57 67.94 291.33 74.47"/>
        <polygon class="cls-1" points="231.52 74.47 232.88 67.94 235.97 64.34 226.72 64.34 229.77 67.94 231.52 74.47"/>
        <polygon class="cls-1" points="222.28 74.47 223.63 67.94 226.72 64.34 217.47 64.34 220.53 67.94 222.28 74.47"/>
        <polygon class="cls-1" points="182.16 124.29 183.51 117.76 186.6 114.16 177.35 114.16 180.4 117.76 182.16 124.29"/>
        <polygon class="cls-1" points="172.91 124.29 174.26 117.76 177.35 114.16 168.11 114.16 171.16 117.76 172.91 124.29"/>
      </g>
    </g>
  </g>
</svg>